<?xml version="1.0" encoding="UTF-8" standalone="no"?><!DOCTYPE svg PUBLIC "-//W3C//DTD SVG 1.1//EN" "http://www.w3.org/Graphics/SVG/1.1/DTD/svg11.dtd"><!-- Generated by graphviz version 2.40.1 (20161225.0304)
 --><!-- Title: G Pages: 1 --><svg xmlns="http://www.w3.org/2000/svg" xmlns:xlink="http://www.w3.org/1999/xlink" width="700pt" height="788pt" viewBox="0.00 0.00 700.00 788.00">
<g id="graph0" class="graph" transform="scale(1 1) rotate(0) translate(4 784)">
<title>G</title>
<polygon fill="#ffffff" stroke="transparent" points="-4,4 -4,-784 696,-784 696,4 -4,4"/>
<g id="clust1" class="cluster">
<title>cluster_0</title>
<polygon fill="#d3d3d3" stroke="#d3d3d3" points="213.1926,-92.6504 213.1926,-222.6504 347.1926,-222.6504 347.1926,-92.6504 213.1926,-92.6504"/>
<text text-anchor="middle" x="280.1926" y="-206.0504" font-family="Times,serif" font-size="14.00" fill="#000000">Led1</text>
</g>
<g id="clust2" class="cluster">
<title>cluster_1</title>
<polygon fill="#d3d3d3" stroke="#d3d3d3" points="364.6954,-48.2165 364.6954,-171.2165 543.6954,-171.2165 543.6954,-48.2165 364.6954,-48.2165"/>
<text text-anchor="middle" x="454.1954" y="-154.6165" font-family="Times,serif" font-size="14.00" fill="#000000">Mess1</text>
</g>
<g id="clust3" class="cluster">
<title>cluster_2</title>
<polygon fill="#d3d3d3" stroke="#d3d3d3" points="290.3637,-546.956 290.3637,-668.956 500.3637,-668.956 500.3637,-546.956 290.3637,-546.956"/>
<text text-anchor="middle" x="395.3637" y="-652.356" font-family="Times,serif" font-size="14.00" fill="#000000">Oled1</text>
</g>
<g id="clust4" class="cluster">
<title>cluster_3</title>
<polygon fill="#d3d3d3" stroke="#d3d3d3" points="70.4789,-435.0898 70.4789,-533.0898 295.4789,-533.0898 295.4789,-435.0898 70.4789,-435.0898"/>
<text text-anchor="middle" x="182.9789" y="-516.4898" font-family="Times,serif" font-size="14.00" fill="#000000">Lum1</text>
</g>
<g id="clust5" class="cluster">
<title>cluster_4</title>
<polygon fill="#d3d3d3" stroke="#d3d3d3" points="549.6158,-182.7482 549.6158,-310.7482 691.6158,-310.7482 691.6158,-182.7482 549.6158,-182.7482"/>
<text text-anchor="middle" x="620.6158" y="-294.1482" font-family="Times,serif" font-size="14.00" fill="#000000">Isr1</text>
</g>
<!-- setup_led -->
<g id="node1" class="node">
<title>setup_led</title>
<ellipse fill="#ffffff" stroke="#ffffff" cx="291.0485" cy="-172.4503" rx="48.0935" ry="18"/>
<text text-anchor="middle" x="291.0485" y="-168.2503" font-family="Times,serif" font-size="14.00" fill="#000000">setup_led</text>
</g>
<!-- loop_led -->
<g id="node2" class="node">
<title>loop_led</title>
<ellipse fill="#ffffff" stroke="#ffffff" cx="266.1154" cy="-118.4908" rx="44.6665" ry="18"/>
<text text-anchor="middle" x="266.1154" y="-114.2908" font-family="Times,serif" font-size="14.00" fill="#000000">loop_led</text>
</g>
<!-- loop_led&#45;&gt;loop_led -->
<g id="edge1" class="edge">
<title>loop_led-&gt;loop_led</title>
<path fill="none" stroke="#000000" d="M307.8078,-125.2145C319.7442,-124.9508 328.9483,-122.7096 328.9483,-118.4908 328.9483,-115.5904 324.5979,-113.6247 318.0002,-112.5937"/>
<polygon fill="#000000" stroke="#000000" points="318.058,-109.087 307.8078,-111.7672 317.4921,-116.0641 318.058,-109.087"/>
</g>
<!-- setup_mess -->
<g id="node3" class="node">
<title>setup_mess</title>
<ellipse fill="#ffffff" stroke="#ffffff" cx="479.9864" cy="-121.3227" rx="55.6159" ry="18"/>
<text text-anchor="middle" x="479.9864" y="-117.1227" font-family="Times,serif" font-size="14.00" fill="#000000">setup_mess</text>
</g>
<!-- loop_mess -->
<g id="node4" class="node">
<title>loop_mess</title>
<ellipse fill="#ffffff" stroke="#ffffff" cx="425.4921" cy="-74.2667" rx="52.1886" ry="18"/>
<text text-anchor="middle" x="425.4921" y="-70.0667" font-family="Times,serif" font-size="14.00" fill="#000000">loop_mess</text>
</g>
<!-- loop_mess&#45;&gt;loop_mess -->
<g id="edge2" class="edge">
<title>loop_mess-&gt;loop_mess</title>
<path fill="none" stroke="#000000" d="M474.1491,-80.9359C486.5365,-80.4976 495.8362,-78.2745 495.8362,-74.2667 495.8362,-71.4487 491.2386,-69.5131 484.2027,-68.4597"/>
<polygon fill="#000000" stroke="#000000" points="484.4117,-64.9649 474.1491,-67.5974 483.8134,-71.9393 484.4117,-64.9649"/>
</g>
<!-- setup_oled -->
<g id="node5" class="node">
<title>setup_oled</title>
<ellipse fill="#ffffff" stroke="#ffffff" cx="439.4323" cy="-618.8938" rx="52.7507" ry="18"/>
<text text-anchor="middle" x="439.4323" y="-614.6938" font-family="Times,serif" font-size="14.00" fill="#000000">setup_oled</text>
</g>
<!-- loop_oled -->
<g id="node6" class="node">
<title>loop_oled</title>
<ellipse fill="#ffffff" stroke="#ffffff" cx="348.2369" cy="-572.9847" rx="49.8233" ry="18"/>
<text text-anchor="middle" x="348.2369" y="-568.7847" font-family="Times,serif" font-size="14.00" fill="#000000">loop_oled</text>
</g>
<!-- loop_oled&#45;&gt;loop_oled -->
<g id="edge3" class="edge">
<title>loop_oled-&gt;loop_oled</title>
<path fill="none" stroke="#000000" d="M394.4085,-579.6754C406.6367,-579.2931 415.8983,-577.0628 415.8983,-572.9847 415.8983,-570.181 411.5207,-568.2507 404.8112,-567.1939"/>
<polygon fill="#000000" stroke="#000000" points="404.6729,-563.6689 394.4085,-566.294 404.0696,-570.6429 404.6729,-563.6689"/>
</g>
<!-- setup_lum -->
<g id="node7" class="node">
<title>setup_lum</title>
<ellipse fill="#ffffff" stroke="#ffffff" cx="236.3049" cy="-460.681" rx="51.0453" ry="18"/>
<text text-anchor="middle" x="236.3049" y="-456.481" font-family="Times,serif" font-size="14.00" fill="#000000">setup_lum</text>
</g>
<!-- loop_lum -->
<g id="node8" class="node">
<title>loop_lum</title>
<ellipse fill="#ffffff" stroke="#ffffff" cx="126.4846" cy="-482.6576" rx="48.1167" ry="18"/>
<text text-anchor="middle" x="126.4846" y="-478.4576" font-family="Times,serif" font-size="14.00" fill="#000000">loop_lum</text>
</g>
<!-- loop_lum&#45;&gt;loop_lum -->
<g id="edge4" class="edge">
<title>loop_lum-&gt;loop_lum</title>
<path fill="none" stroke="#000000" d="M171.2529,-489.3577C183.3442,-489.0042 192.5429,-486.7708 192.5429,-482.6576 192.5429,-479.8297 188.1951,-477.8903 181.5486,-476.8395"/>
<polygon fill="#000000" stroke="#000000" points="181.5152,-473.3239 171.2529,-475.9574 180.9175,-480.2984 181.5152,-473.3239"/>
</g>
<!-- mb_photo_oled -->
<g id="node11" class="node">
<title>mb_photo_oled</title>
<polygon fill="none" stroke="#000000" points="230.2636,-779.5645 126.4907,-779.5645 126.4907,-743.5645 230.2636,-743.5645 230.2636,-779.5645"/>
<text text-anchor="middle" x="178.3771" y="-757.3645" font-family="Times,serif" font-size="14.00" fill="#000000">mb_photo_oled</text>
</g>
<!-- loop_lum&#45;&gt;mb_photo_oled -->
<g id="edge17" class="edge">
<title>loop_lum-&gt;mb_photo_oled</title>
<path fill="none" stroke="#000000" d="M129.8894,-500.9574C138.7439,-548.5477 162.539,-676.4393 173.1479,-733.4589"/>
<polygon fill="#000000" stroke="#000000" points="169.757,-734.3688 175.0272,-743.5599 176.6389,-733.0884 169.757,-734.3688"/>
</g>
<!-- mb_photo_led -->
<g id="node12" class="node">
<title>mb_photo_led</title>
<polygon fill="none" stroke="#000000" points="96.4143,-259.6078 -.3587,-259.6078 -.3587,-223.6078 96.4143,-223.6078 96.4143,-259.6078"/>
<text text-anchor="middle" x="48.0278" y="-237.4078" font-family="Times,serif" font-size="14.00" fill="#000000">mb_photo_led</text>
</g>
<!-- loop_lum&#45;&gt;mb_photo_led -->
<g id="edge19" class="edge">
<title>loop_lum-&gt;mb_photo_led</title>
<path fill="none" stroke="#000000" d="M120.5876,-464.5396C106.9849,-422.747 73.3361,-319.3648 57.0908,-269.4528"/>
<polygon fill="#000000" stroke="#000000" points="60.4164,-268.3617 53.9932,-259.936 53.7601,-270.5283 60.4164,-268.3617"/>
</g>
<!-- setup_isr -->
<g id="node9" class="node">
<title>setup_isr</title>
<ellipse fill="#ffffff" stroke="#ffffff" cx="637.2952" cy="-260.342" rx="45.8041" ry="18"/>
<text text-anchor="middle" x="637.2952" y="-256.142" font-family="Times,serif" font-size="14.00" fill="#000000">setup_isr</text>
</g>
<!-- loop_isr -->
<g id="node10" class="node">
<title>loop_isr</title>
<ellipse fill="#ffffff" stroke="#ffffff" cx="599.8432" cy="-208.7137" rx="42.8771" ry="18"/>
<text text-anchor="middle" x="599.8432" y="-204.5137" font-family="Times,serif" font-size="14.00" fill="#000000">loop_isr</text>
</g>
<!-- loop_isr&#45;&gt;loop_isr -->
<g id="edge5" class="edge">
<title>loop_isr-&gt;loop_isr</title>
<path fill="none" stroke="#000000" d="M639.5338,-215.4489C651.3426,-215.2478 660.5313,-213.0028 660.5313,-208.7137 660.5313,-205.765 656.1882,-203.7824 649.6365,-202.7659"/>
<polygon fill="#000000" stroke="#000000" points="649.7755,-199.2662 639.5338,-201.9786 649.2316,-206.245 649.7755,-199.2662"/>
</g>
<!-- mb_isr_led -->
<g id="node13" class="node">
<title>mb_isr_led</title>
<polygon fill="none" stroke="#000000" points="548.61,-35.8924 469.6268,-35.8924 469.6268,.1076 548.61,.1076 548.61,-35.8924"/>
<text text-anchor="middle" x="509.1184" y="-13.6924" font-family="Times,serif" font-size="14.00" fill="#000000">mb_isr_led</text>
</g>
<!-- loop_isr&#45;&gt;mb_isr_led -->
<g id="edge21" class="edge">
<title>loop_isr-&gt;mb_isr_led</title>
<path fill="none" stroke="#000000" d="M591.308,-190.7617C575.3675,-157.2341 540.9846,-84.9167 522.1341,-45.2684"/>
<polygon fill="#000000" stroke="#000000" points="525.1518,-43.4641 517.6969,-35.9357 518.8299,-46.4698 525.1518,-43.4641"/>
</g>
<!-- mb_photo_oled&#45;&gt;loop_oled -->
<g id="edge18" class="edge">
<title>mb_photo_oled-&gt;loop_oled</title>
<path fill="none" stroke="#000000" d="M194.664,-743.4827C225.2077,-709.5728 291.1297,-636.3857 325.8315,-597.8594"/>
<polygon fill="#000000" stroke="#000000" points="328.6465,-599.9637 332.7386,-590.191 323.4453,-595.2789 328.6465,-599.9637"/>
</g>
<!-- mb_photo_led&#45;&gt;loop_led -->
<g id="edge20" class="edge">
<title>mb_photo_led-&gt;loop_led</title>
<path fill="none" stroke="#000000" d="M80.2074,-223.4415C120.524,-200.6815 189.3629,-161.8199 231.0068,-138.3107"/>
<polygon fill="#000000" stroke="#000000" points="232.9771,-141.2176 239.9647,-133.2537 229.5358,-135.1219 232.9771,-141.2176"/>
</g>
<!-- mb_isr_led&#45;&gt;loop_led -->
<g id="edge22" class="edge">
<title>mb_isr_led-&gt;loop_led</title>
<path fill="none" stroke="#000000" d="M469.5349,-34.2791C424.8048,-52.7965 352.3489,-82.7918 307.0638,-101.539"/>
<polygon fill="#000000" stroke="#000000" points="305.4568,-98.4161 297.556,-105.475 308.1343,-104.8838 305.4568,-98.4161"/>
</g>
<!-- setup -->
<g id="node14" class="node">
<title>setup</title>
<ellipse fill="none" stroke="#000000" cx="452.5488" cy="-364.4169" rx="31.339" ry="31.339"/>
<text text-anchor="middle" x="452.5488" y="-360.2169" font-family="Times,serif" font-size="14.00" fill="#000000">setup</text>
</g>
<!-- setup&#45;&gt;setup_led -->
<g id="edge9" class="edge">
<title>setup-&gt;setup_led</title>
<path fill="none" stroke="#000000" d="M432.0947,-340.1042C401.3198,-303.5238 343.3986,-234.676 312.2123,-197.6066"/>
<polygon fill="#000000" stroke="#000000" points="314.7345,-195.1678 305.6185,-189.7689 309.378,-199.6743 314.7345,-195.1678"/>
</g>
<!-- setup&#45;&gt;setup_mess -->
<g id="edge6" class="edge">
<title>setup-&gt;setup_mess</title>
<path fill="none" stroke="#000000" d="M456.0796,-333.1342C461.4661,-285.4101 471.6533,-195.1532 476.816,-149.4116"/>
<polygon fill="#000000" stroke="#000000" points="480.3121,-149.6432 477.9558,-139.3137 473.3562,-148.858 480.3121,-149.6432"/>
</g>
<!-- setup&#45;&gt;setup_oled -->
<g id="edge7" class="edge">
<title>setup-&gt;setup_oled</title>
<path fill="none" stroke="#000000" d="M450.9273,-395.876C448.352,-445.8407 443.3659,-542.5758 440.8943,-590.5282"/>
<polygon fill="#000000" stroke="#000000" points="437.3843,-590.6338 440.3649,-600.8008 444.3751,-590.9942 437.3843,-590.6338"/>
</g>
<!-- setup&#45;&gt;setup_lum -->
<g id="edge8" class="edge">
<title>setup-&gt;setup_lum</title>
<path fill="none" stroke="#000000" d="M423.8333,-377.2C386.343,-393.8893 320.4657,-423.2156 277.6148,-442.2913"/>
<polygon fill="#000000" stroke="#000000" points="276.0219,-439.1692 268.3097,-446.4336 278.8688,-445.5641 276.0219,-439.1692"/>
</g>
<!-- setup&#45;&gt;setup_isr -->
<g id="edge10" class="edge">
<title>setup-&gt;setup_isr</title>
<path fill="none" stroke="#000000" d="M480.2072,-348.8358C512.6407,-330.5648 566.4645,-300.2437 601.9117,-280.2749"/>
<polygon fill="#000000" stroke="#000000" points="603.9512,-283.1432 610.946,-275.1856 600.5154,-277.0443 603.9512,-283.1432"/>
</g>
<!-- loop -->
<g id="node15" class="node">
<title>loop</title>
<ellipse fill="none" stroke="#000000" cx="379.0937" cy="-332.7928" rx="28.4127" ry="28.4127"/>
<text text-anchor="middle" x="379.0937" y="-328.5928" font-family="Times,serif" font-size="14.00" fill="#000000">loop</text>
</g>
<!-- setup&#45;&gt;loop -->
<g id="edge11" class="edge">
<title>setup-&gt;loop</title>
<path fill="none" stroke="#000000" d="M423.5174,-351.9182C420.4697,-350.6061 417.3479,-349.2621 414.2413,-347.9246"/>
<polygon fill="#000000" stroke="#000000" points="415.6248,-344.7097 405.0558,-343.9701 412.8567,-351.1392 415.6248,-344.7097"/>
</g>
<!-- loop&#45;&gt;loop_led -->
<g id="edge15" class="edge">
<title>loop-&gt;loop_led</title>
<path fill="none" stroke="#000000" d="M365.9125,-307.7902C344.4739,-267.1246 302.2369,-187.0077 280.2183,-145.2419"/>
<polygon fill="#000000" stroke="#000000" points="283.22,-143.4305 275.4604,-136.2168 277.0278,-146.695 283.22,-143.4305"/>
</g>
<!-- loop&#45;&gt;loop_mess -->
<g id="edge12" class="edge">
<title>loop-&gt;loop_mess</title>
<path fill="none" stroke="#000000" d="M384.1474,-304.6338C393.0751,-254.8898 411.5344,-152.0368 420.4522,-102.348"/>
<polygon fill="#000000" stroke="#000000" points="423.932,-102.772 422.2536,-92.3109 417.0421,-101.5354 423.932,-102.772"/>
</g>
<!-- loop&#45;&gt;loop_oled -->
<g id="edge13" class="edge">
<title>loop-&gt;loop_oled</title>
<path fill="none" stroke="#000000" d="M375.4936,-360.8159C369.5645,-406.9684 357.811,-498.4592 351.8641,-544.7499"/>
<polygon fill="#000000" stroke="#000000" points="348.3885,-544.3372 350.5856,-554.7017 355.3314,-545.2292 348.3885,-544.3372"/>
</g>
<!-- loop&#45;&gt;loop_lum -->
<g id="edge14" class="edge">
<title>loop-&gt;loop_lum</title>
<path fill="none" stroke="#000000" d="M354.4125,-347.4353C309.2062,-374.2547 213.0131,-431.323 161.2232,-462.0483"/>
<polygon fill="#000000" stroke="#000000" points="159.21,-459.173 152.3954,-467.2855 162.7816,-465.1933 159.21,-459.173"/>
</g>
<!-- loop&#45;&gt;loop_isr -->
<g id="edge16" class="edge">
<title>loop-&gt;loop_isr</title>
<path fill="none" stroke="#000000" d="M403.9873,-318.8005C443.4404,-296.6247 520.4384,-253.3456 565.2404,-228.1633"/>
<polygon fill="#000000" stroke="#000000" points="567.0165,-231.18 574.0189,-223.229 563.5866,-225.0779 567.0165,-231.18"/>
</g>
</g>
</svg>